<?xml version="1.0" encoding="UTF-8"?> <svg xmlns="http://www.w3.org/2000/svg" width="142" height="58" viewBox="0 0 142 58" fill="none"><g clip-path="url(#clip0_1822_8056)"><path d="M38.4654 9.47825C38.0253 9.24805 37.5853 9.02787 37.1352 8.83771C34.8207 7.80928 32.3166 7.27741 29.7841 7.27637C27.3214 7.27917 24.8844 7.77769 22.6181 8.74229C20.3518 9.70689 18.3025 11.1178 16.5923 12.8912C15.7187 13.8104 14.9413 14.8165 14.2719 15.8938C14.0619 16.2241 13.8719 16.5443 13.6919 16.8946L13.6319 17.0048C13.05 18.1044 12.5841 19.2616 12.2417 20.4577C11.6773 22.3285 11.4272 24.28 11.5016 26.2327C11.5624 27.7963 11.8178 29.3462 12.2617 30.8467C13.4932 35.0154 16.18 38.6028 19.8327 40.9554C20.2528 41.2356 20.6828 41.4858 21.1129 41.726C23.3038 42.9009 25.7085 43.6225 28.1839 43.8479C28.454 43.8479 28.734 43.8479 29.014 43.8479C29.2739 43.8631 29.5343 43.8631 29.7942 43.8479C32.4285 43.8474 35.0316 43.2773 37.4252 42.1764H36.135C34.3266 42.8641 32.4176 43.2495 30.4843 43.3174C30.2545 43.3326 30.0239 43.3326 29.7942 43.3174C28.5289 43.3173 27.2677 43.1763 26.0336 42.8971C24.4036 42.546 22.8312 41.9664 21.3629 41.1756L20.7529 40.8253C19.5121 40.0989 18.3636 39.2252 17.3324 38.223C15.5482 36.4556 14.1532 34.3342 13.2368 31.9952C12.3205 29.6562 11.9032 27.1513 12.0116 24.6413C12.02 24.2326 12.0534 23.8249 12.1116 23.4203C12.322 21.5297 12.8424 19.6867 13.6519 17.9656C13.7943 17.6238 13.9545 17.2897 14.1319 16.9647C14.7541 15.8887 15.4847 14.8792 16.3122 13.9521C16.8248 13.3558 17.3797 12.7972 17.9725 12.2807C20.2206 10.2761 22.9441 8.88059 25.8836 8.22717C27.1754 7.92541 28.4977 7.7743 29.8242 7.7768C31.0716 7.77912 32.3154 7.9133 33.5347 8.17714C35.1814 8.53049 36.7705 9.11331 38.2553 9.90861C41.6125 11.7053 44.2971 14.5429 45.9064 17.9956H46.4665C44.8051 14.3552 41.9937 11.3624 38.4654 9.47825Z" fill="#A7A9AC"></path><path d="M17.9326 12.2805C20.1807 10.2758 22.9042 8.88037 25.8437 8.22695C27.1354 7.9252 28.4578 7.77408 29.7842 7.77658C31.035 7.77946 32.282 7.91363 33.5048 8.17692C33.0247 8.17692 32.5646 8.11687 32.0845 8.11687C28.4677 8.10332 24.9256 9.14689 21.8931 11.1195C20.7463 11.2995 19.6204 11.5946 18.5327 12.0002L17.9326 12.2504V12.2805ZM7.93115 21.5284C8.73834 17.9072 10.3446 14.5124 12.6323 11.5926C14.9201 8.67288 17.8313 6.3021 21.153 4.65386C22.3973 4.03163 23.6963 3.52573 25.0336 3.14258C25.4536 3.00246 25.8837 2.89236 26.3137 2.79227C27.2106 2.57783 28.1189 2.41411 29.0341 2.30186C30.0292 2.17495 31.0314 2.11143 32.0346 2.1117C36.7519 2.11546 41.3697 3.46971 45.3429 6.0146C49.3161 8.55949 52.4788 12.1888 54.4577 16.4741C54.6911 16.9678 54.9011 17.4683 55.0878 17.9754H48.5069C46.7823 14.7396 44.1369 12.0888 40.9058 10.3588C37.3906 8.68219 33.6101 7.63222 29.7342 7.25611C27.2698 7.25758 24.8309 7.75548 22.5628 8.72011C20.2947 9.68475 18.2438 11.0964 16.5324 12.871C16.0498 13.1016 15.5821 13.3624 15.1322 13.6516C14.6061 13.9497 14.1015 14.2842 13.622 14.6525C11.4127 16.3194 9.58782 18.4426 8.2712 20.8779C8.17118 21.058 8.08119 21.2582 7.98118 21.4484L7.93115 21.5284ZM17.3125 38.3529C15.5283 36.5855 14.1333 34.4641 13.2169 32.1251C12.3006 29.7861 11.8833 27.2812 11.9917 24.7712L12.1318 24.451C12.2826 24.0738 12.4563 23.7061 12.6518 23.35C12.7918 23.0998 12.9319 22.8596 13.0919 22.6093C13.4743 21.9855 13.9058 21.3932 14.3821 20.8378C13.7381 22.6993 13.4004 24.653 13.3819 26.6228C13.3573 28.5173 13.6237 30.4042 14.172 32.2176C14.281 32.6114 14.4112 32.999 14.5621 33.3786C15.2118 35.1784 16.1362 36.8665 17.3025 38.383L17.3125 38.3529ZM25.1936 44.4582C22.9887 44.4547 20.8146 43.9403 18.8415 42.9555C16.8685 41.9706 15.1501 40.5419 13.821 38.7814C12.4918 37.0209 11.5881 34.9763 11.1805 32.8079C10.7729 30.6394 10.8726 28.406 11.4717 26.2825C11.5325 27.8461 11.7879 29.3961 12.2318 30.8965C13.4633 35.0652 16.1501 38.6526 19.8028 41.0052C20.8482 41.9125 21.9883 42.7044 23.2033 43.3673C23.9766 43.7845 24.7787 44.1458 25.6037 44.4482H25.1936V44.4582ZM32.0746 51.6043C28.2547 51.5983 24.4884 50.704 21.073 48.9921C22.425 49.2994 23.8072 49.4538 25.1936 49.4525C29.1565 49.4531 33.0242 48.2374 36.2751 45.9695C36.7852 45.6092 37.2753 45.2288 37.7453 44.8185L37.9354 44.6584C39.6282 44.1058 41.2318 43.3101 42.6961 42.2963H51.3973C48.2855 46.1846 44.0753 49.0446 39.3156 50.5034C36.956 51.2097 34.5074 51.5737 32.0446 51.5843" fill="#ED1C24"></path><path d="M16.5423 12.9012C18.2526 11.1279 20.3018 9.71693 22.5681 8.75233C24.8344 7.78773 27.2714 7.28918 29.7342 7.28638C32.2666 7.28742 34.7707 7.81928 37.0852 8.84772C35.8977 8.50258 34.6777 8.28124 33.4447 8.18718C32.2262 7.91844 30.9819 7.78417 29.7342 7.78681C28.3877 7.78101 27.0452 7.93217 25.7336 8.23721C22.798 8.89307 20.0783 10.2883 17.8325 12.2907C17.3609 12.4671 16.9001 12.6709 16.4523 12.9012H16.5423ZM19.6928 40.9254C16.04 38.5728 13.3532 34.9854 12.1217 30.8167C11.6778 29.3162 11.4224 27.7663 11.3616 26.2027C11.5002 25.7019 11.6705 25.2105 11.8717 24.7314C11.773 27.2569 12.2065 29.7748 13.1438 32.1216C14.0812 34.4684 15.5015 36.5916 17.3124 38.3532C18.057 39.308 18.8946 40.1864 19.8128 40.9754" fill="#9E0B0F"></path><path d="M14.3119 20.8382C14.6489 19.8463 15.0705 18.8853 15.5721 17.9657C17.0532 15.1967 19.2148 12.851 21.853 11.1498C22.9466 10.9352 24.059 10.8313 25.1734 10.8396C28.0503 10.8296 30.8926 11.4676 33.4896 12.7064C36.0866 13.9452 38.3717 15.753 40.1756 17.9957H32.7445C32.4945 17.8356 32.2345 17.6855 31.9744 17.5453C29.099 15.9859 25.7756 15.4621 22.5604 16.0615C19.3452 16.6609 16.4333 18.3472 14.3119 20.8382ZM30.3942 43.4176C31.1877 43.1082 31.951 42.7262 32.6745 42.2767H36.045C34.2366 42.9643 32.3275 43.3497 30.3942 43.4176ZM32.0144 45.5895C31.4766 45.5928 30.939 45.5661 30.4042 45.5094C28.7421 45.3678 27.1069 45.0008 25.5435 44.4185C25.8778 44.4194 26.2119 44.3994 26.5437 44.3585C27.2182 44.292 27.8869 44.1749 28.5439 44.0082C28.6696 43.9888 28.7934 43.9587 28.914 43.9181C29.1738 43.9333 29.4343 43.9333 29.6941 43.9181C32.3284 43.9176 34.9315 43.3475 37.3252 42.2467H40.1356C39.4462 43.0962 38.6867 43.8863 37.8652 44.6087C37.633 44.6957 37.3959 44.7692 37.1551 44.8289C35.4814 45.315 33.7472 45.561 32.0044 45.5595L32.0144 45.5895ZM21.0029 48.9424C19.2564 48.5664 17.5725 47.943 16.0022 47.0908C14.3625 46.2044 12.8572 45.0889 11.5315 43.778C8.69285 40.9115 6.81989 37.2292 6.17437 33.2456C5.52884 29.262 6.143 25.1761 7.93102 21.5588C7.27324 24.5169 7.17485 27.5722 7.64097 30.5666C7.82131 31.7136 8.07861 32.8471 8.4111 33.9595C8.53112 34.3899 8.67114 34.8002 8.82116 35.2206C10.8641 40.946 14.9595 45.7078 20.3128 48.5821C20.5428 48.7022 20.7828 48.8323 21.0229 48.9424" fill="#C6C8CA"></path><path d="M29.744 43.9477C29.4842 43.9629 29.2237 43.9629 28.9639 43.9477C29.4637 43.811 29.9546 43.6439 30.4341 43.4472C32.3674 43.3793 34.2765 42.9939 36.0849 42.3063H37.3751C34.9814 43.4071 32.3783 43.9772 29.744 43.9777" fill="#8A8C8E"></path><path d="M11.9617 24.7714C11.9701 24.3627 12.0035 23.9549 12.0617 23.5503C12.2721 21.6597 12.7925 19.8168 13.602 18.0956C13.752 17.7654 13.902 17.4551 14.072 17.0948C14.7061 15.9712 15.457 14.9177 16.3123 13.9521C16.8188 13.3534 17.3705 12.7947 17.9626 12.2806L18.5627 12.0304C19.6504 11.6248 20.7763 11.3297 21.9231 11.1497C19.2821 12.8505 17.1172 15.1961 15.6322 17.9655C15.138 18.8873 14.7198 19.848 14.3821 20.838C13.9058 21.3933 13.4743 21.9857 13.0919 22.6095C12.9319 22.8597 12.7918 23.1 12.6518 23.3502C12.4563 23.7063 12.2826 24.0739 12.1318 24.4511L11.9917 24.7714H11.9617ZM25.2036 49.4327C23.8172 49.434 22.435 49.2796 21.083 48.9723C20.843 48.8622 20.6029 48.7321 20.3729 48.6119C14.999 45.7361 10.8905 40.9573 8.85129 35.2104C8.70127 34.8001 8.56125 34.3797 8.44123 33.9493C8.10874 32.8369 7.85144 31.7034 7.6711 30.5564C7.20498 27.562 7.30337 24.5067 7.96115 21.5486C8.06117 21.3584 8.15119 21.1583 8.2512 20.9781C9.56782 18.5429 11.3927 16.4197 13.602 14.7528C14.0815 14.3844 14.5861 14.05 15.1122 13.7519C15.5621 13.4626 16.0298 13.2019 16.5124 12.9712C15.6329 13.8853 14.8549 14.8921 14.192 15.9738C13.982 16.3041 13.792 16.6244 13.6119 16.9747L13.5519 17.0848C12.9701 18.1844 12.5042 19.3416 12.1618 20.5378C11.5974 22.4085 11.3473 24.36 11.4216 26.3127C10.8225 28.4362 10.7229 30.6696 11.1305 32.8381C11.5381 35.0065 12.4418 37.0511 13.7709 38.8116C15.1001 40.5721 16.8184 42.0008 18.7915 42.9857C20.7646 43.9705 22.9387 44.4849 25.1436 44.4884H25.5536C27.117 45.0707 28.7522 45.4377 30.4143 45.5793C30.9491 45.6362 31.4867 45.6629 32.0245 45.6594C33.7673 45.6609 35.5015 45.4149 37.1753 44.9288C37.4131 44.8706 37.647 44.797 37.8754 44.7086L37.6953 44.8687C37.2153 45.2791 36.6952 45.6594 36.2251 46.0197C32.9736 48.2865 29.1063 49.502 25.1436 49.5027" fill="#BA131A"></path><path d="M11.4515 26.2524C11.3772 24.2997 11.6272 22.3482 12.1916 20.4775C12.5341 19.2813 13 18.1241 13.5818 17.0245L13.6418 16.9144C13.8218 16.5841 14.0119 16.2638 14.2219 15.9135C14.8912 14.8362 15.6687 13.8302 16.5422 12.9109C16.99 12.6806 17.4508 12.4768 17.9224 12.3004C17.3449 12.8096 16.8067 13.3616 16.3122 13.9518C15.4643 14.9324 14.7265 16.003 14.1119 17.1446C13.9344 17.4696 13.7742 17.8036 13.6318 18.1454C12.8223 19.8666 12.3019 21.7096 12.0916 23.6002C12.0334 24.0048 12 24.4125 11.9916 24.8212C11.7905 25.3003 11.6201 25.7917 11.4815 26.2925" fill="#820000"></path><path d="M56.3879 42.2765C56.1479 42.817 55.8779 43.3474 55.5978 43.8679C52.4489 49.7019 47.1147 54.0466 40.7669 55.9477C34.4191 57.8487 27.5768 57.1506 21.7431 54.0066C21.582 53.928 21.4251 53.8412 21.273 53.7464C20.3923 53.25 19.5438 52.6984 18.7326 52.095C15.7533 49.9066 13.3055 47.074 11.5716 43.8078C10.7818 42.3274 10.1418 40.7717 9.66136 39.1638C9.27083 37.872 8.9898 36.5495 8.82125 35.2104C8.13359 30.0119 9.10681 24.7288 11.6016 20.1174C11.8817 19.607 12.1717 19.1165 12.4718 18.6361C12.7718 18.1557 13.1918 17.5352 13.5819 17.0147L14.042 16.4242C14.7428 15.5504 15.5012 14.7245 16.3123 13.9521C17.0274 13.2715 17.7786 12.6301 18.5626 12.0304C20.7686 10.3604 23.2403 9.0746 25.8736 8.22714C27.1441 7.79879 28.4491 7.4807 29.7742 7.27634C33.4905 6.69061 37.2916 6.9645 40.8858 8.07702C41.8458 8.3616 42.7849 8.71274 43.6962 9.12791C44.3032 9.37477 44.8944 9.65889 45.4664 9.97865C49.0264 11.8875 52.0679 14.6357 54.3277 17.9856H55.5278C55.1978 17.4751 54.8577 16.9847 54.5277 16.4843C52.2529 13.4181 49.3296 10.8925 45.9665 9.0879C44.5007 8.29557 42.9595 7.65181 41.3658 7.16623C40.3847 6.84282 39.3821 6.58864 38.3654 6.40556C36.8115 6.11832 35.2349 5.97097 33.6547 5.96521C30.2179 5.96378 26.8149 6.6441 23.6425 7.96691C20.47 9.28971 17.5911 11.2287 15.1721 13.6718C14.4842 14.3726 13.8396 15.1146 13.2419 15.8938C12.3222 17.0526 11.5088 18.292 10.8115 19.597C9.18685 22.6006 8.17352 25.8969 7.83017 29.295C7.48683 32.6932 7.82029 36.1257 8.81124 39.394C8.96126 39.9045 9.12128 40.3949 9.31131 40.8853C10.7026 44.7389 12.9931 48.2046 15.9922 50.994C16.7497 51.7109 17.5514 52.3794 18.3926 52.9958C19.3435 53.6983 20.3466 54.3273 21.393 54.8774C27.461 58.1525 34.5804 58.8822 41.1859 56.9059C47.7913 54.9295 53.3421 50.4091 56.618 44.3383C56.978 43.6577 57.3081 42.9771 57.6181 42.2765H56.3879Z" fill="#670000"></path><path d="M23.1536 3.30274C23.7737 3.23268 24.4038 3.18262 25.0339 3.16261H26.034C30.1682 3.17162 34.2361 4.20307 37.8757 6.16519C38.0357 6.25527 38.1958 6.33536 38.3558 6.43545C43.0068 9.05942 46.6813 13.1229 48.8273 18.0154H49.9174C48.4991 14.6572 46.3897 11.6357 43.7265 9.14778C42.9809 8.44896 42.1926 7.79714 41.3662 7.19608C40.4122 6.48914 39.4095 5.85034 38.3658 5.28443C35.4779 3.73537 32.3272 2.73754 29.0745 2.34189C28.6844 2.34189 28.2944 2.25183 27.9143 2.23181C27.2942 2.23181 26.6741 2.16174 26.054 2.16174C25.824 2.16174 25.574 2.16174 25.3439 2.16174C19.6246 2.32373 14.1184 4.36887 9.67841 7.98024C5.23842 11.5916 2.1126 16.5676 0.785308 22.1371C-0.541984 27.7066 0.00335386 33.5587 2.33683 38.7866C4.6703 44.0145 8.66162 48.3264 13.6923 51.0539C15.1705 51.8547 16.7251 52.5052 18.3329 52.9956C19.316 53.3099 20.3182 53.5606 21.3334 53.7462C22.8792 54.0429 24.45 54.1904 26.024 54.1866C30.3713 54.1959 34.651 53.1097 38.4684 51.0282C42.2857 48.9467 45.518 45.9369 47.8671 42.2763H46.6869C46.4669 42.5966 46.2369 42.9069 46.0069 43.2172C42.9243 47.3067 38.6617 50.3508 33.7949 51.9384C28.9282 53.526 23.6918 53.5806 18.793 52.0948C17.8273 51.7981 16.879 51.4472 15.9526 51.0439C15.3526 50.7736 14.7624 50.4934 14.1824 50.1731C9.50341 47.6441 5.75206 43.6881 3.47328 38.8798C1.1945 34.0715 0.506991 28.6613 1.51063 23.4353C2.51427 18.2093 5.15677 13.4395 9.05426 9.81907C12.9518 6.1986 17.9012 3.91596 23.1836 3.30274" fill="#8B0304"></path><path d="M57.018 16.404C56.1583 13.5085 54.7348 10.8116 52.8295 8.46871C50.9243 6.12578 48.5748 4.18302 45.9164 2.75226C42.7649 1.05096 39.2593 0.111453 35.68 0.00891486C32.1007 -0.0936237 28.5471 0.643655 25.3035 2.16176C24.5653 2.50017 23.8473 2.88115 23.1532 3.30275C22.4588 3.71814 21.7908 4.17607 21.1529 4.67393C17.7259 7.25 15.0975 10.7443 13.5719 14.7526C13.4118 15.153 13.2818 15.5433 13.1518 15.9437C12.8631 16.8243 12.6358 17.7238 12.4717 18.636C12.3435 19.2406 12.25 19.8522 12.1917 20.4675C12.0737 21.4906 12.0302 22.5208 12.0616 23.5502C12.0616 23.8505 12.0616 24.1507 12.0616 24.451C12.2665 27.5609 13.0966 30.5974 14.502 33.3787C15.9803 36.3198 18.0789 38.9048 20.6528 40.9552C21.4973 41.6221 22.3862 42.2307 23.3132 42.7768C23.5733 42.9269 23.8233 43.077 24.0933 43.2172C24.8921 43.6419 25.7135 44.0228 26.5537 44.3581C27.807 44.8564 29.1024 45.2416 30.4242 45.5091C31.9211 45.821 33.4459 45.9787 34.9749 45.9795H36.2351C39.6269 45.7922 42.9357 44.8593 45.9264 43.2472C46.4665 42.9569 46.9766 42.6367 47.4866 42.3064H45.4864C43.0677 43.6391 40.4161 44.4953 37.6752 44.8285L37.1552 44.8886C36.4211 44.9688 35.6833 45.0089 34.9449 45.0087C32.7732 44.9977 30.6155 44.6603 28.544 44.0078L28.0839 43.8677C27.3521 43.6275 26.6343 43.3469 25.9336 43.027C25.4635 42.8168 25.0035 42.5866 24.5334 42.3364C20.9933 40.4177 18.047 37.5639 16.0155 34.0855C13.9839 30.6072 12.945 26.6377 13.0118 22.6094C13.023 21.0893 13.2041 19.5753 13.5518 18.0955C13.6719 17.535 13.8219 16.9845 13.9919 16.4241C13.9919 16.2639 14.1019 16.0938 14.1719 15.9236C14.4194 15.1749 14.7065 14.4399 15.0321 13.7217C15.1945 13.3332 15.3815 12.9554 15.5921 12.5908C17.8018 8.47893 21.2678 5.18226 25.4835 3.18266C25.7236 3.05254 25.9836 2.95243 26.2236 2.84234C26.7337 2.61214 27.2238 2.422 27.7839 2.24184C30.0869 1.4434 32.5075 1.0374 34.9449 1.04079C39.6674 1.03975 44.2638 2.56619 48.0487 5.39251C51.8336 8.21883 54.6044 12.1937 55.9478 16.7243C56.0778 17.1547 56.1979 17.5851 56.2979 18.0254H57.298C57.178 17.495 57.048 16.9645 56.888 16.4341" fill="#B11116"></path><path d="M73.8804 50.7739V42.2866H79.1211V43.6978H75.4806V45.9598H78.8411V47.371H75.4806V50.7739H73.8804Z" fill="#231F20"></path><path d="M82.1915 42.2866H80.5913V50.7739H82.1915V42.2866Z" fill="#231F20"></path><path d="M83.7718 50.7739V42.2866H87.1122C88.7125 42.2866 89.3626 42.9472 89.3626 44.0981V44.9689C89.3834 45.2713 89.302 45.5719 89.1314 45.8224C88.9609 46.0729 88.7112 46.2588 88.4224 46.3501C88.7843 46.4156 89.1095 46.6118 89.3363 46.9015C89.5631 47.1912 89.6756 47.5542 89.6526 47.9214V48.8222C89.6526 50.0233 88.8725 50.7739 87.3323 50.7739H83.7718ZM87.7723 44.2983C87.7723 43.8279 87.5223 43.6077 86.9322 43.6077H85.392V45.8397H86.9222C87.5523 45.8397 87.7723 45.5494 87.7723 45.049V44.2983ZM88.0724 47.9815C88.0724 47.411 87.8123 47.1308 87.1722 47.1308H85.392V49.4427H87.0422C87.7623 49.4427 88.0424 49.2426 88.0424 48.6221L88.0724 47.9815Z" fill="#231F20"></path><path d="M90.9728 42.2866H96.1635V43.6978H92.573V45.7496H95.8835V47.1608H92.573V49.3527H96.1635V50.7739H90.9728V42.2866Z" fill="#231F20"></path><path d="M102.764 50.7739L100.814 47.9715H99.3239V50.7739H97.7237V42.2866H101.194C103.194 42.2866 103.895 43.0873 103.895 44.5786V45.6895C103.947 46.125 103.85 46.5655 103.619 46.9384C103.388 47.3113 103.037 47.5945 102.624 47.7413L104.725 50.7439L102.764 50.7739ZM101.094 43.6978H99.3239V46.5803H101.134C102.014 46.5803 102.294 46.26 102.294 45.5794V44.7387C102.294 44.0181 101.984 43.7379 101.134 43.7379" fill="#231F20"></path><path d="M106.855 48.1416C106.855 48.9723 107.215 49.4628 108.335 49.4628C108.774 49.4609 109.212 49.4241 109.645 49.3527V46.7805H111.166V50.5137C110.24 50.7677 109.285 50.8956 108.325 50.894C106.245 50.894 105.255 50.0233 105.255 48.3418V44.7187C105.255 42.9772 106.255 42.1565 108.475 42.1565C109.293 42.1547 110.109 42.2488 110.906 42.4367L110.736 43.8379C109.944 43.6632 109.136 43.5759 108.325 43.5777C107.215 43.5777 106.835 44.0381 106.835 44.9088L106.855 48.1416Z" fill="#231F20"></path><path d="M114.236 49.3527H117.717V50.7739H112.626V42.2866H114.236V49.3527Z" fill="#231F20"></path><path d="M123.787 49.0124H120.637L120.107 50.7739H118.427L121.097 42.2866H123.327L125.998 50.7739H124.327L123.787 49.0124ZM121.027 47.5812H123.377L122.217 43.5777L121.027 47.5812Z" fill="#231F20"></path><path d="M129.328 50.894C128.42 50.8955 127.52 50.7222 126.678 50.3836L126.958 49.1225C127.729 49.3809 128.535 49.516 129.348 49.5228C130.508 49.5228 130.698 49.2826 130.698 48.4619C130.698 47.6412 130.698 47.4611 129.148 47.1108C127.098 46.6504 126.818 46.26 126.818 44.4685C126.818 42.9172 127.518 42.1565 129.668 42.1565C130.499 42.1612 131.328 42.2552 132.139 42.4367L131.959 43.7879C131.212 43.625 130.452 43.5378 129.688 43.5277C128.608 43.5277 128.418 43.7579 128.418 44.5285C128.418 45.5294 128.418 45.5294 129.908 45.8797C132.189 46.4302 132.309 46.8005 132.309 48.4919C132.309 50.1834 131.829 50.924 129.308 50.924" fill="#231F20"></path><path d="M135.949 50.894C135.044 50.8945 134.148 50.7212 133.309 50.3836L133.589 49.1225C134.36 49.3809 135.166 49.516 135.979 49.5228C137.139 49.5228 137.329 49.2826 137.329 48.4619C137.329 47.6412 137.329 47.4611 135.779 47.1108C133.729 46.6504 133.449 46.26 133.449 44.4685C133.449 42.9172 134.149 42.1565 136.299 42.1565C137.13 42.1612 137.958 42.2552 138.77 42.4367L138.589 43.7879C137.845 43.6425 137.088 43.5721 136.329 43.5777C135.249 43.5777 135.059 43.8079 135.059 44.5786C135.059 45.5794 135.059 45.5794 136.549 45.9297C138.83 46.4802 138.95 46.8505 138.95 48.542C138.95 50.2334 138.469 50.9741 135.949 50.9741" fill="#231F20"></path><path d="M140.84 42.1465C141.039 42.1475 141.236 42.1991 141.41 42.2966C141.593 42.3893 141.743 42.536 141.84 42.717C141.945 42.8925 142 43.0931 142 43.2975C142 43.5006 141.949 43.7004 141.85 43.878C141.749 44.0587 141.6 44.2078 141.42 44.3084C141.242 44.4065 141.043 44.458 140.84 44.458C140.637 44.458 140.437 44.4065 140.26 44.3084C140.079 44.2078 139.93 44.0587 139.83 43.878C139.731 43.7004 139.679 43.5006 139.68 43.2975C139.68 43.0931 139.735 42.8925 139.84 42.717C139.937 42.536 140.087 42.3893 140.27 42.2966C140.444 42.2003 140.64 42.1487 140.84 42.1465ZM140.84 42.3367C140.673 42.3386 140.508 42.3797 140.36 42.4567C140.211 42.5438 140.087 42.6679 140 42.817C139.92 42.9649 139.875 43.1294 139.87 43.2975C139.87 43.4694 139.915 43.6383 140 43.7879C140.085 43.9355 140.21 44.0567 140.36 44.1382C140.512 44.226 140.684 44.2723 140.86 44.2723C141.035 44.2723 141.208 44.226 141.36 44.1382C141.51 44.0567 141.634 43.9355 141.72 43.7879C141.808 43.6357 141.854 43.4631 141.854 43.2875C141.854 43.1118 141.808 42.9392 141.72 42.787C141.63 42.6366 141.503 42.5123 141.35 42.4267C141.205 42.3487 141.044 42.3074 140.88 42.3066L140.84 42.3367ZM140.37 43.918V42.6669H140.8C140.906 42.6529 141.014 42.6529 141.12 42.6669L141.27 42.787L141.33 42.9772L141.24 43.2074C141.17 43.2767 141.078 43.3192 140.98 43.3275L141.08 43.3875C141.148 43.467 141.212 43.5506 141.27 43.6378L141.42 43.888H141.17L141.06 43.6878C141.007 43.5798 140.936 43.4817 140.85 43.3976H140.57V43.928L140.37 43.918ZM140.57 43.2074H140.82C140.903 43.217 140.987 43.1994 141.06 43.1573L141.12 43.0172V42.9171L141.03 42.8571H140.6L140.57 43.2074Z" fill="#231F20"></path><path d="M36.1751 32.7781C36.1751 34.1092 36.6152 34.8899 38.3054 34.8899C39.6266 34.8703 40.9442 34.7465 42.246 34.5196L42.726 37.5222C41.2741 37.8412 39.7919 38.0023 38.3054 38.0026C34.4649 38.0026 32.7446 36.101 32.7446 33.3286V26.9631C32.7446 24.1907 34.4649 22.2891 38.3054 22.2891C39.7919 22.2894 41.2741 22.4504 42.726 22.7695L42.246 25.772C40.9442 25.5452 39.6266 25.4214 38.3054 25.4017C36.6152 25.4017 36.1751 26.1824 36.1751 27.5136V32.7781Z" fill="#231F20"></path><path d="M53.6576 37.7724V31.6371H48.7369V37.7724H45.3064V22.5192H48.7369V28.5945H53.6576V22.5192H57.0881V37.7724H53.6576Z" fill="#231F20"></path><path d="M72.6903 37.7724H69.1298L68.2996 34.7698H63.1989L62.3788 37.7724H58.8083L63.449 22.5593H68.0296L72.6903 37.7724ZM63.979 31.9273H67.4795L65.7393 25.5619L63.979 31.9273Z" fill="#231F20"></path><path d="M77.4309 29.2951L77.2109 37.7724H73.8904L74.5305 22.5192H77.961L81.6215 32.2276L85.282 22.5192H88.7125L89.3526 37.7724H86.0421L85.8121 29.2951L83.1617 35.8007H80.0913L77.4309 29.2951Z" fill="#231F20"></path><path d="M97.8038 33.1484H95.1934V37.7724H91.763V22.5593H97.9838C101.684 22.5593 103.065 24.0305 103.065 26.893V28.8947C103.065 31.7472 101.504 33.1985 97.8038 33.1985V33.1484ZM99.6341 27.1933C99.6341 26.0923 99.244 25.5819 97.8038 25.5819H95.1934V30.1859H97.8038C99.314 30.1859 99.6341 29.6154 99.6341 28.5144V27.1933Z" fill="#231F20"></path><path d="M109.115 22.5192H105.685V37.7724H109.115V22.5192Z" fill="#231F20"></path><path d="M123.567 33.3286C123.567 35.6406 121.957 38.0026 117.657 38.0026C113.356 38.0026 111.756 35.6406 111.756 33.3286V26.9631C111.756 24.6511 113.356 22.2891 117.657 22.2891C121.957 22.2891 123.567 24.6511 123.567 26.9631V33.3286ZM120.127 27.2634C120.127 26.0723 119.377 25.3417 117.657 25.3417C115.936 25.3417 115.186 26.0723 115.186 27.2634V33.0283C115.186 34.2193 115.946 34.96 117.657 34.96C119.367 34.96 120.127 34.2193 120.127 33.0283V27.2634Z" fill="#231F20"></path><path d="M129.468 27.7438V37.7724H126.188V22.5192H130.398L135.409 33.0283V22.5192H138.68V37.7724H134.449L129.468 27.7438Z" fill="#231F20"></path></g><defs><clipPath id="clip0_1822_8056"><rect width="142" height="58" fill="white"></rect></clipPath></defs></svg> 